<svg
  width="102"
  height="71"
  viewBox="0 0 102 71"
  fill="none"
  xmlns="http://www.w3.org/2000/svg"
>
<path
    d="M55.6863 1.29395L53.9316 1.86834L57.3624 12.3493L59.1171 11.7753L55.6863 1.29395Z"
    fill="white"
  />
<path
    d="M43.6876 12.3371L41.9233 11.7652L45.5666 0.655273H62.9012L57.2158 7.40273L55.8106 6.2267L58.9312 2.50132H46.9062L43.6876 12.3371Z"
    fill="white"
  />
<path d="M51.4484 15.4424H49.6021V38.4625H51.4484V15.4424Z" fill="white" />
<path
    d="M50.5172 39.5568L26.7778 23.905L27.791 22.3691L50.5172 37.3514L73.2433 22.3691L74.2561 23.905L50.5172 39.5568Z"
    fill="white"
  />
<path
    d="M57.4399 40.416L55.7876 41.2397L65.0677 59.8524L66.7201 59.0284L57.4399 40.416Z"
    fill="white"
  />
<path
    d="M30.8463 14.7378L31.1895 14.9339L30.5684 16.6982L29.6044 16.1429L29.3594 15.8161L30.4869 14.9665L30.6827 14.6396L30.8134 14.7215L30.83 14.7052L30.8463 14.7378Z"
    fill="white"
  />
<path
    d="M50.9751 26.1414L50.5176 26.9421L50.0601 27.7428L49.6025 27.4814V25.3574L50.5176 25.8801L50.9751 26.1414Z"
    fill="white"
  />
<path
    d="M26.9083 22.2949L19.165 25.6704L19.9027 27.3628L27.6459 23.9873L26.9083 22.2949Z"
    fill="white"
  />
<path
    d="M19.5895 25.5872L19.5403 26.5186L19.4752 27.4336L18.1844 27.3518L15.2108 27.1556L13.1686 27.025L10.8321 26.878L10.3257 26.8454L10.4564 24.999L12.1554 25.1134L19.3771 25.5709L19.5895 25.5872Z"
    fill="white"
  />
<path
    d="M8.8385 54.488L7.98861 54.1452H7.05762V53.9491L18.6902 26.1582L20.3893 26.8608L8.8385 54.488Z"
    fill="white"
  />
<path
    d="M4.18246 43.2148L5.1138 45.3222L4.88504 45.7309L3.28369 44.8321L4.18246 43.2148Z"
    fill="white"
  />
<path
    d="M15.4883 26.6478L15.2107 27.1542L13.1685 27.0235L13.8707 25.749L15.4883 26.6478Z"
    fill="white"
  />
<path
    d="M87.1635 25.75L87.8661 27.0245L85.8239 27.1552L85.5459 26.6488L87.1635 25.75Z"
    fill="white"
  />
<path
    d="M97.7502 44.8321L96.1492 45.7309L95.9204 45.3222L96.8517 43.2148L97.7502 44.8321Z"
    fill="white"
  />
<path
    d="M50.517 14.4266L43.9491 11.5511L42.25 10.7997L33.4274 6.92735L28.6078 0L0 38.2799L11.6818 64.8293L11.9269 65.3849H13.1847L27.7583 24.5563L28.3953 22.7754L30.5686 16.6976L31.2057 14.933L33.3623 8.90442L49.6186 16.0442L50.1739 16.2893L50.55 15.4397L50.9257 14.5899L50.517 14.4266ZM26.5493 22.4485L25.6998 24.8339L12.4333 61.9701L8.98586 54.128L7.95678 51.7915L5.11388 45.3217L4.18255 43.198L2.12403 38.525L10.8323 26.8599L12.1556 25.0953L28.5589 3.15345L31.7776 7.79353L26.5493 22.4485Z"
    fill="white"
  />
<path
    d="M50.5181 25.8801L51.4331 25.3574V27.4814L50.9756 27.7428L50.5181 26.9421L50.0605 26.1414L50.5181 25.8801Z"
    fill="white"
  />
<path
    d="M71.6753 15.8161L71.4303 16.1429L70.4664 16.6982L69.8452 14.9339L70.1884 14.7378L70.2047 14.7052L70.2209 14.7215L70.352 14.6396L70.5478 14.9665L71.6753 15.8161Z"
    fill="white"
  />
<path
    d="M74.1262 22.2842L73.3882 23.9769L81.1314 27.352L81.8691 25.6597L74.1262 22.2842Z"
    fill="white"
  />
<path
    d="M90.6921 26.8454L90.202 26.878L87.8655 27.025L85.8232 27.1556L82.8497 27.3518L81.5589 27.4336L81.4937 26.5186L81.4282 25.5872L81.657 25.5709L88.8786 25.1134L90.5777 24.999L90.6921 26.8454Z"
    fill="white"
  />
<path
    d="M92.1957 54.488L80.6445 26.8608L82.344 26.1582L93.9765 53.9491V54.1452H93.0452L92.1957 54.488Z"
    fill="white"
  />
<path
    d="M72.4264 0L67.6231 6.92735L58.8004 10.7997L57.1014 11.5511L50.5334 14.4429L50.1577 14.6065L50.5334 15.456L50.9092 16.3056L51.4648 16.0605L67.7208 8.9207L69.8777 14.9493L70.5148 16.7139L72.6877 22.7917L73.3248 24.5726L87.6859 64.7967L87.8983 65.4175H89.1565L101.083 38.3292L72.4264 0ZM93.0774 51.7915L92.0483 54.1117L88.6009 61.9538L75.3344 24.8339L74.4849 22.4485L69.2566 7.80983L72.4752 3.16975L88.8786 25.1115L90.2019 26.8762L98.9101 38.5416L96.8516 43.2143L95.9203 45.338L93.0774 51.7915Z"
    fill="white"
  />
<path
    d="M43.5803 40.4199L34.2998 59.0323L35.9521 59.856L45.2323 41.2436L43.5803 40.4199Z"
    fill="white"
  />
<path
    d="M42.9195 63.4434L44.5534 64.5217L44.4061 65.1587L42.6089 64.7175L42.9195 63.4434Z"
    fill="white"
  />
<path
    d="M49.4552 44.7026L49.0957 46.1733L47.5273 44.8007L47.6743 44.2617L49.4552 44.7026Z"
    fill="white"
  />
<path
    d="M73.9459 55.2722L50.5171 70.6298L27.0884 55.2722L41.8744 33.8694L42.4134 33.085L43.9329 34.1307L43.4265 34.8821L41.76 37.2675L40.7143 38.8033L29.6699 54.7654L34.7672 58.1147L36.3193 59.1279L42.9198 63.4411L44.5537 64.5194L50.5171 68.4243L56.4806 64.5194L58.1141 63.4411L64.715 59.1279L66.2671 58.1147L71.3643 54.7654L60.32 38.8033L59.2742 37.2675L57.624 34.8821L57.1013 34.1307L58.6209 33.085L59.1599 33.8694L73.9459 55.2722Z"
    fill="white"
  />
<path
    d="M61.1037 38.1174L60.3194 38.8037L57.7707 41.058L56.333 42.3162L53.5064 44.7997L51.938 46.1719L50.5166 47.4301L49.0951 46.1719L47.5267 44.7997L44.7004 42.3162L43.279 41.058L40.7137 38.8037L39.9297 38.1174L41.155 36.7285L41.7594 37.2678L50.5166 44.9792L59.274 37.2678L59.8785 36.7285L61.1037 38.1174Z"
    fill="white"
  />
</svg>
